<svg xmlns="http://www.w3.org/2000/svg" width="100%" height="auto" viewBox="0 0 279 492" version="1.1">
	<path d="M 111.985 17.927 C 70.262 29.211, 42.755 66.586, 43.427 111.079 C 43.576 120.951, 43.564 121, 41.154 121 C 32.229 121, 23.123 128.152, 21.050 136.790 C 19.606 142.809, 20.260 146.723, 23.811 153.333 C 28.049 161.219, 36.213 166.741, 45.333 167.887 C 49.869 168.457, 50.375 168.814, 52.599 173 C 56.031 179.462, 68.493 190.956, 78.032 196.458 C 86.802 201.516, 96.928 204.845, 111.683 207.519 C 122.544 209.487, 122.681 210.106, 113.625 216.253 C 104.992 222.113, 99.685 227.801, 90.532 241.005 C 81.980 253.344, 73.405 264.979, 51.708 293.683 L 37.964 311.866 32.232 313.034 C 25.678 314.370, 21.856 316.458, 17.311 321.184 C 13.301 325.354, 12 328.783, 12 335.179 C 12 345.430, 19.653 353.019, 29.950 352.978 C 40.072 352.938, 47.008 347.896, 50.480 338.056 C 51.316 335.687, 52 331.619, 52 329.016 C 52 324.312, 52.086 324.191, 66.549 308.533 C 74.550 299.869, 84 289.185, 87.549 284.791 C 91.097 280.396, 94 277.097, 94 277.460 C 94 277.822, 92.915 282.930, 91.589 288.810 C 90.263 294.689, 88.625 303.293, 87.948 307.928 C 86.353 318.857, 86.262 344.393, 87.767 359 C 90.434 384.897, 93.112 405.408, 95.891 421.234 L 98.829 437.968 95.491 444.742 C 91.063 453.730, 90.065 462.183, 92.898 466.696 C 95.956 471.565, 99.077 473.088, 107.185 473.665 C 113.292 474.100, 115.300 473.826, 119.346 472.004 C 123.315 470.217, 124.554 469.002, 126.196 465.290 C 128.655 459.730, 128.037 452.402, 124.418 444.218 C 122.053 438.870, 122.042 438.705, 123.484 429.155 C 124.286 423.845, 125.415 417.025, 125.994 414 C 126.573 410.975, 128.180 399.500, 129.565 388.500 C 132.298 366.807, 132.619 366, 138.536 366 C 142.384 366, 145 368.646, 145 372.536 C 145 377.188, 147.873 399.070, 151.130 419.227 L 154.155 437.954 151.578 444.398 C 148.479 452.144, 148.126 461.099, 150.706 466.511 C 153.255 471.855, 159.405 474.335, 168.500 473.687 C 177.556 473.042, 180.366 471.670, 183.070 466.575 C 184.946 463.038, 185.173 461.536, 184.565 456.673 C 184.166 453.478, 182.442 448.146, 180.672 444.629 C 178.204 439.725, 177.633 437.557, 178.112 434.909 C 178.451 433.034, 179.908 424.975, 181.350 417 C 184.029 402.186, 187.278 376.414, 189.016 356.200 C 189.550 349.985, 190.238 343.901, 190.544 342.681 C 191.783 337.744, 189.046 308.306, 185.973 293.532 C 184.264 285.316, 182.646 278.122, 182.376 277.546 C 182.107 276.971, 183.824 278.727, 186.193 281.450 C 188.562 284.172, 196.575 293.084, 204 301.255 C 225.696 325.130, 224.351 323.220, 225.081 331.181 C 225.797 338.995, 228.587 343.963, 235.287 349.360 C 240.471 353.535, 249.882 354.318, 255.683 351.058 C 260.667 348.257, 263.824 343.563, 264.617 337.776 C 265.606 330.563, 264.351 326.336, 259.733 321.326 C 254.863 316.043, 250.214 313.496, 244 312.707 C 240.631 312.279, 238.959 311.427, 237.349 309.318 C 236.166 307.768, 227.756 296.762, 218.662 284.860 C 209.567 272.959, 197.383 256.534, 191.585 248.360 C 178.010 229.224, 173.312 223.964, 163.902 217.371 C 159.669 214.404, 155.950 211.312, 155.638 210.499 C 154.999 208.835, 155.729 208.611, 167 207.004 C 177.894 205.452, 190.183 201.457, 198.675 196.707 C 207.652 191.687, 221.670 178.361, 224.403 172.250 C 226.190 168.254, 226.548 167.999, 230.402 167.991 C 239.283 167.970, 250.728 158.184, 253.658 148.105 C 254.986 143.537, 255.047 141.787, 254.035 137.266 C 252.040 128.351, 243.681 121.080, 235.361 121.022 L 232.221 121 232.719 112.750 C 233.410 101.280, 230.106 83.521, 224.897 70.712 C 214.297 44.645, 190.733 24.551, 162.625 17.608 C 152.928 15.213, 150.110 14.945, 136.625 15.138 C 123.959 15.318, 119.953 15.771, 111.985 17.927" stroke="none" fill="black" fill-rule="evenodd"/>
</svg>